<svg id="visual" viewBox="0 0 960 540" width="960" height="540" xmlns="http://www.w3.org/2000/svg" xmlns:xlink="http://www.w3.org/1999/xlink" version="1.1"><rect x="0" y="0" width="960" height="540" fill="#fff"></rect><defs><linearGradient id="grad1_0" x1="43.8%" y1="0%" x2="100%" y2="100%"><stop offset="14.444444444444446%" stop-color="#ffffff" stop-opacity="1"></stop><stop offset="85.55555555555554%" stop-color="#ffffff" stop-opacity="1"></stop></linearGradient></defs><defs><linearGradient id="grad2_0" x1="0%" y1="0%" x2="56.3%" y2="100%"><stop offset="14.444444444444446%" stop-color="#ffffff" stop-opacity="1"></stop><stop offset="85.55555555555554%" stop-color="#ffffff" stop-opacity="1"></stop></linearGradient></defs><g transform="translate(960, 0)"><path d="M0 270C-53.6 266.6 -107.3 263.3 -135 233.8C-162.7 204.4 -164.5 148.8 -182.7 105.5C-200.9 62.2 -235.5 31.1 -270 0L0 0Z" fill="#166088"></path></g><g transform="translate(0, 540)"><path d="M0 -270C29 -231.8 57.9 -193.5 101.5 -175.8C145.1 -158.1 203.3 -160.9 233.8 -135C264.3 -109.1 267.2 -54.6 270 0L0 0Z" fill="#166088"></path></g></svg>